<?xml version="1.0" encoding="utf-8"?>
<!-- Generator: Adobe Illustrator 16.0.0, SVG Export Plug-In . SVG Version: 6.00 Build 0)  -->
<!DOCTYPE svg PUBLIC "-//W3C//DTD SVG 1.1//EN" "http://www.w3.org/Graphics/SVG/1.1/DTD/svg11.dtd">
<svg version="1.1" id="Calque_1" xmlns="http://www.w3.org/2000/svg" xmlns:xlink="http://www.w3.org/1999/xlink" x="0px" y="0px"
     width="819px" height="432px" viewBox="0 0 819 432" enable-background="new 0 0 819 432" xml:space="preserve">
<g>
    <polygon fill="#212121" points="61,60 217,60 217,8 9,8 9,424 217,424 217,372 61,372"/>
    <polygon fill="#212121" points="602,8 602,60 758,60 758,372 602,372 602,424 810,424 810,8"/>
    <path fill="#212121" d="M628.253,280.886c-18.068,0-35.17-10.1-48.408-21.84l-16.852,46.75
        c20.965,13.131,43.828,20.408,67.139,20.408c20.502,0,41.771-5.721,57.693-19.41c16.171-13.908,21.002-31.629,21.002-52.08
        c0-33.359-21.824-51.125-50.127-59.617l-13.488-4.07c-9.141-3.031-23.437-7.67-23.437-19.67c0-11.484,12.954-17.244,22.632-17.244
        c12.934,0,25.295,5.461,36.834,14.557l15.939-44.191c-19.355-9.705-41.699-15.166-60.305-15.166c-40.734,0-70.109,25-70.109,66.77
        c0,37.299,21.844,50.992,55.009,60.523c11.325,3.297,32.06,8.492,32.06,23.484C653.835,274.562,640.632,280.886,628.253,280.886z"
        />
    <path fill="#212121" d="M189.244,114H112v208h51v-52h26.244c42.703,0,77.319-34.912,77.319-77.977
        C266.563,148.871,231.947,114,189.244,114z M189.244,218H163v-52h26.244c14.241,0,25.762,11.661,25.762,26.044
        C215.006,206.339,203.485,218,189.244,218z"/>
    <rect x="292" y="114" fill="#212121" width="52" height="208"/>
    <path fill="#212121" d="M437.999,114l-75.387,208h55.422l6.869-21h66.656l6.671,21h55.226l-75.208-208H437.999z M439.501,256
        l18.623-63.258L477.337,256H439.501z"/>
</g>
</svg>
