<?xml version="1.0" encoding="utf-8"?>
<!-- Generator: Adobe Illustrator 28.1.0, SVG Export Plug-In . SVG Version: 6.00 Build 0)  -->
<svg version="1.1" id="tunecore2_xA0_Image_1_" xmlns="http://www.w3.org/2000/svg" xmlns:xlink="http://www.w3.org/1999/xlink"
	 x="0px" y="0px" viewBox="0 0 306.7 87.7" style="enable-background:new 0 0 306.7 87.7;" xml:space="preserve">
<style type="text/css">
	.st0{fill:#FFFFFF;}
</style>
<path class="st0" d="M188,52.9c-0.5,1.2-1.2,2.4-1.9,3.4c-1.1,1.5-2.3,2.7-3.6,3.6c-1.3,1-2.9,1.8-4.6,2.3c-1.7,0.6-3.5,0.8-5.3,0.8
	c-2.4,0-4.6-0.5-6.8-1.5c-2.1-1-4-2.3-5.4-3.9c-1.6-1.7-2.8-3.6-3.7-5.8c-0.8-2.2-1.3-4.6-1.3-7.1c0-2.5,0.5-4.8,1.3-7
	c1-2.2,2.2-4.1,3.7-5.8c1.6-1.7,3.4-2.9,5.4-3.9c2.1-1,4.4-1.5,6.8-1.5c1.9,0,3.9,0.2,5.6,0.8c1.7,0.6,3.3,1.3,4.6,2.4
	c1.3,1,2.5,2.3,3.5,3.6c0.7,1.1,1.5,2.2,1.9,3.4h3.9c-0.7-2.1-1.6-4-2.8-5.7c-1.2-1.7-2.5-3.1-4.2-4.4c-1.6-1.2-3.5-2.2-5.6-2.9
	c-2.1-0.7-4.2-1-6.6-1c-2.9,0-5.6,0.6-8.1,1.7c-2.5,1.1-4.7,2.7-6.6,4.7c-1.9,1.9-3.4,4.2-4.5,6.9c-1.1,2.7-1.7,5.4-1.7,8.5
	s0.6,5.9,1.7,8.6c1.1,2.7,2.5,5,4.5,7c1.8,1.9,4.1,3.5,6.6,4.7c2.5,1.1,5.2,1.7,8.1,1.7c2.3,0,4.4-0.4,6.4-1
	c2.1-0.6,3.9-1.6,5.6-2.8c1.7-1.2,3.1-2.7,4.4-4.5c1.2-1.7,2.3-3.6,3-5.8L188,52.9z"/>
<path class="st0" d="M234.3,36.3c-1.1-2.7-2.5-5-4.5-7c-1.9-1.9-4.1-3.5-6.6-4.6c-2.5-1.1-5.3-1.7-8.2-1.7c-2.9,0-5.6,0.6-8.2,1.7
	c-2.5,1.1-4.8,2.7-6.6,4.7c-1.9,1.9-3.4,4.4-4.5,7c-1.1,2.7-1.7,5.6-1.7,8.6c0,3.1,0.6,5.9,1.7,8.7c1.1,2.7,2.5,5.1,4.5,7
	c1.9,1.9,4.1,3.5,6.6,4.7c2.5,1.1,5.3,1.7,8.2,1.7c2.9,0,5.6-0.6,8.2-1.7c2.5-1.1,4.8-2.7,6.6-4.7c1.9-1.9,3.4-4.4,4.5-7
	c1.1-2.7,1.7-5.6,1.7-8.7C236,41.9,235.4,39,234.3,36.3z M231,52.2c-0.8,2.2-2.2,4.1-3.7,5.8c-1.6,1.7-3.4,2.9-5.6,3.9
	c-2.2,1-4.4,1.5-6.8,1.5c-2.4,0-4.6-0.5-6.8-1.5c-2.2-1-4-2.2-5.6-3.9c-1.6-1.7-2.8-3.6-3.7-5.8s-1.3-4.6-1.3-7.1
	c0-2.5,0.5-5,1.3-7.1c1-2.2,2.2-4.1,3.7-5.8c1.6-1.7,3.4-2.9,5.6-3.9c2.1-1,4.4-1.5,6.8-1.5c2.4,0,4.7,0.5,6.8,1.3
	c2.2,1,4,2.2,5.6,3.9c1.6,1.6,2.8,3.5,3.6,5.8c0.8,2.2,1.3,4.6,1.3,7.3C232.3,47.6,231.9,50,231,52.2z"/>
<path class="st0" d="M270.7,65.4h-3.9V55c0-2.1-0.6-3.6-1.7-4.7c-1.1-1.1-2.9-1.6-5.3-1.6h-16.3v16.7h-4V23h16.2
	c2.2,0,6.6,0.4,8.3,1c1.7,0.6,3.1,1.5,4.4,2.7c1.2,1.1,2.1,2.4,2.7,4.1c0.6,1.6,0.7,3.5,0.7,5.3c0,2.3-0.4,4.1-1.3,5.8
	c-1,1.7-2.4,3.1-4.2,4.2c3,1.7,4.5,4.7,4.5,8.9V65.4z M258.1,44.8c2.5,0,5-0.7,6.6-1.8c1.9-1.3,3.4-2.9,3.4-7.3s-1.6-6.2-3.5-7.4
	c-1.7-1.1-4.5-1.7-7-1.7h-14v18.1H258.1z"/>
<path class="st0" d="M306.7,23v3.7h-26.4V42h23.8v3.7h-23.8v15.8h26.4v3.7h-30.2V23C276.5,23,306.7,23,306.7,23z"/>
<path class="st0" d="M18.8,58.1c-1.1-0.2-2.1-0.7-2.9-1.3c-0.8-0.6-1.6-1.6-1.9-2.7c-0.5-1.1-0.7-2.7-0.7-4.4V30.3h9.4V23h-9.4v-8.8
	H5.8V23H0.1v7.3h5.7v19.5c0,2.7,0.4,5.1,1.2,7.1s1.9,3.7,3.4,5.1c1.5,1.3,3.3,2.3,5.3,2.9c1.3,0.4,2.8,0.6,4.4,0.6
	c0.7,0,1.6,0,2.4-0.1h0.2v-7h-0.4C21.3,58.5,20,58.4,18.8,58.1z M54.4,48.9c0,1.5-0.2,2.9-0.8,4.2c-0.5,1.3-1.3,2.4-2.2,3.4
	c-1,1-2.1,1.7-3.3,2.2c-1.3,0.5-2.7,0.7-4.1,0.7c-3.3,0-5.7-1-7.4-2.9c-1.7-1.9-2.5-4.5-2.5-7.7V23h-7.5v25.4c0,2.7,0.4,5.1,1.1,7.1
	c0.7,2.2,1.8,4.1,3.1,5.7c1.5,1.6,3.1,2.9,5.2,3.7s4.4,1.3,6.9,1.3c2.7,0,5-0.5,7.1-1.5c1.8-0.8,3.4-2.1,4.7-3.4v4H62V23.2h-7.5
	v25.8H54.4z M97.2,27c-1.5-1.6-3.1-2.9-5.2-3.7c-2.1-0.8-4.4-1.3-6.9-1.3c-2.5,0-5,0.5-7,1.6c-1.8,0.8-3.4,2.1-4.7,3.5v-4h-7.3v42.3
	h7.5V39.6c0-1.5,0.2-2.9,0.7-4.2s1.2-2.4,2.2-3.3c1-1,2.1-1.7,3.4-2.2c1.3-0.6,2.8-0.8,4.2-0.8c3.3,0,5.7,1,7.4,3s2.5,4.6,2.5,7.7
	v25.6h7.5V40.1c0-2.7-0.4-5.1-1.1-7.3C99.7,30.5,98.6,28.6,97.2,27z M147.5,46c0-3.7-0.6-7.1-1.8-10c-1.2-2.9-2.8-5.4-4.7-7.5
	c-1.9-2.1-4.2-3.6-6.9-4.7c-2.5-1.1-5.2-1.7-8-1.7c-2.9,0-5.7,0.6-8.3,1.8c-2.5,1.2-4.8,2.8-6.8,4.7c-1.9,1.9-3.4,4.4-4.6,7
	c-1.1,2.7-1.7,5.6-1.7,8.7c0,3.1,0.6,6,1.7,8.7c1.1,2.7,2.7,5,4.6,7c1.9,1.9,4.2,3.5,6.9,4.7c2.7,1.1,5.4,1.7,8.6,1.7
	c4.8,0,9.1-1.2,12.6-3.6c3.4-2.4,5.9-5.9,7.4-10.5l0.1-0.5h-8l-0.1,0.2c-1.1,2.3-2.7,4.2-4.7,5.6c-2.1,1.3-4.5,1.9-7.4,1.9
	c-1.7,0-3.3-0.4-4.8-1s-3-1.5-4.4-2.7c-1.3-1.1-2.4-2.5-3.3-4.2c-0.8-1.6-1.3-3.4-1.6-5.3h34.9V46H147.5z M113,39.5
	c0.4-1.6,1.1-3,1.9-4.2c1-1.3,1.9-2.5,3.1-3.5c1.2-1,2.4-1.7,3.9-2.2c2.8-1,5.8-1,8.5,0c1.3,0.5,2.7,1.3,3.9,2.3
	c1.2,1,2.2,2.2,3,3.5c0.8,1.2,1.5,2.7,1.8,4.1C139.1,39.5,113,39.5,113,39.5z"/>
</svg>
